<svg xmlns="http://www.w3.org/2000/svg" width="156" height="39" viewBox="0 0 156 39"><path fill="#32363f" d="M9.47 22.43c-1.28 0-2.28.55-2.91 1.57a7.62 7.62 0 0 0-1.1 4.34c0 3.78 1.46 5.72 4.28 5.72.82 0 1.73-.09 2.55-.37.82-.28 1.64-.55 2.46-.92v4.52A13.25 13.25 0 0 1 9.2 38.4c-2.92 0-5.19-.83-6.83-2.59C.82 34.06 0 31.57 0 28.34c0-2.03.36-3.88 1.18-5.45a7.81 7.81 0 0 1 3.28-3.6A9.9 9.9 0 0 1 9.47 18c2.09 0 4.1.46 6.1 1.38l-1.64 4.25c-.73-.37-1.46-.65-2.18-.83a8.84 8.84 0 0 0-2.28-.37zM26.11 22c.45 0 .91 0 1.27.09l.27.09-.36 4.99c-.46-.09-1-.19-1.82-.19-1.19 0-2.01.28-2.46.83a3.1 3.1 0 0 0-.82 2.31v7.57H17V22.28h3.92l.81 2.49h.28a4.6 4.6 0 0 1 1.82-1.94 3.88 3.88 0 0 1 2.28-.83zM36.01 37.97c-2.55 0-4.46-.65-5.92-2.03-1.36-1.39-2.09-3.33-2.09-5.82 0-2.58.64-4.61 1.91-6 1.28-1.38 3.1-2.12 5.56-2.12 2.27 0 4 .65 5.28 1.85 1.27 1.2 1.82 2.95 1.82 5.16v2.4h-9.2c0 .83.37 1.57.91 2.03.55.47 1.37.74 2.37.74.91 0 1.73-.09 2.55-.27.73-.19 1.64-.47 2.55-.93v3.79c-.82.46-1.64.74-2.55.92-.91.18-1.91.28-3.19.28zm-.27-12.37c-.64 0-1.09.18-1.55.55-.45.37-.64 1.02-.73 1.85h4.47c0-.74-.19-1.29-.64-1.75a2.2 2.2 0 0 0-1.55-.65zM55.84 32.8c0 1.66-.55 2.86-1.64 3.69-1.09.83-2.73 1.29-4.74 1.29a26.5 26.5 0 0 1-2.91-.18c-.82-.1-1.64-.37-2.55-.65v-4.24c.82.36 1.73.64 2.64.92 1 .28 1.82.37 2.55.37 1.09 0 1.73-.28 1.73-.83 0-.28-.18-.56-.46-.74-.27-.19-1.27-.65-2.73-1.2a6.73 6.73 0 0 1-2.91-1.94 4.5 4.5 0 0 1-.82-2.77c0-1.38.55-2.58 1.64-3.32 1.09-.83 2.64-1.2 4.64-1.2 1 0 1.91.09 2.83.37.91.18 1.82.55 2.73.92l-1.46 3.42-2.19-.83c-.81-.19-1.36-.37-1.91-.37-.82 0-1.27.18-1.27.64 0 .28.18.46.45.65.28.18 1.19.55 2.55 1.11 1.1.46 1.82.92 2.37 1.29s.91.92 1.18 1.48c.19.64.28 1.38.28 2.12zM63.56 37.97c-2.46 0-4.37-.65-5.65-2.03-1.27-1.39-1.91-3.33-1.91-5.91s.73-4.52 2.09-5.91c1.37-1.38 3.37-2.12 5.92-2.12 1.73 0 3.37.37 5.01 1.2l-1.55 3.88c-.63-.28-1.18-.47-1.73-.65a5.18 5.18 0 0 0-1.64-.28 2.4 2.4 0 0 0-2 1.02 4.9 4.9 0 0 0-.73 2.86c0 2.49.91 3.69 2.73 3.69 1.55 0 3.01-.46 4.37-1.38v4.24a8.5 8.5 0 0 1-4.91 1.39zM78.01 37.97c-2.55 0-4.46-.65-5.92-2.03-1.36-1.39-2.09-3.33-2.09-5.82 0-2.58.64-4.61 1.91-6 1.28-1.38 3.1-2.12 5.56-2.12 2.27 0 4 .65 5.28 1.85 1.27 1.2 1.82 2.95 1.82 5.16v2.4h-9.29c0 .83.37 1.57.91 2.03.55.47 1.37.74 2.37.74.91 0 1.73-.09 2.55-.27.73-.19 1.64-.47 2.55-.93v3.79c-.82.46-1.64.74-2.55.92-.82.18-1.91.28-3.1.28zm-.36-12.37c-.64 0-1.09.18-1.55.55-.45.37-.64 1.02-.73 1.85h4.46c0-.74-.18-1.29-.63-1.75-.28-.37-.82-.65-1.55-.65zM95.2 22c.45 0 .91 0 1.27.09l.27.09-.45 4.99c-.46-.09-1-.19-1.82-.19-1.19 0-2.01.28-2.46.83a3.1 3.1 0 0 0-.82 2.31v7.57H86V22.28h3.92l.81 2.49h.28a4.6 4.6 0 0 1 1.82-1.94A3.93 3.93 0 0 1 95.2 22zM10.96 4.24c0 1.51-.5 2.62-1.49 3.33-1 .7-2.39 1.21-4.18 1.21h-1.7v5.65H2V0h3.68c3.49 0 5.28 1.41 5.28 4.24zM3.59 7.37h1.5c1.49 0 2.49-.21 3.18-.71.7-.5 1-1.21 1-2.32 0-.91-.3-1.72-.9-2.12-.6-.5-1.59-.81-2.89-.81H3.59zM16.88 3c.5 0 .89 0 1.29.1l-.3 1.51c-.39-.1-.79-.1-1.19-.1-.9 0-1.59.41-2.19 1.11a4 4 0 0 0-.9 2.63v5.85H12V3.2h1.29l.2 2.02h.1c.4-.71.9-1.21 1.4-1.61A2.97 2.97 0 0 1 16.88 3zM28.86 8.65c0 1.82-.4 3.13-1.3 4.14a4.61 4.61 0 0 1-3.68 1.51c-1 0-1.79-.2-2.59-.7a5.23 5.23 0 0 1-1.69-1.92c-.4-.81-.6-1.82-.6-3.03 0-1.82.4-3.13 1.29-4.14A4.56 4.56 0 0 1 23.88 3c1.49 0 2.69.5 3.58 1.51a6.1 6.1 0 0 1 1.4 4.14zm-8.07 0c0 1.41.3 2.42.8 3.13s1.39 1.11 2.39 1.11c.99 0 1.89-.4 2.39-1.11.5-.71.79-1.82.79-3.13 0-1.41-.29-2.42-.79-3.13-.6-.7-1.4-1.11-2.39-1.11-1.1 0-1.89.31-2.39 1.01-.6.81-.8 1.92-.8 3.23zM39.06 4.44l-2.13.17c.2.21.43.71.63 1.11.1.41.2.81.2 1.22 0 1.11-.4 1.91-1.09 2.52a4.6 4.6 0 0 1-3.03 1.03c-.29 0-.59 0-.89-.1-.7.4-.96.68-.96 1.29 0 .3.1.5.4.7.2.11.69.21 1.19.21h1.89c1.2 0 2.09.2 2.69.7.6.51.9 1.21.9 2.12 0 1.21-.5 2.12-1.4 2.73-.99.6-2.29.9-4.18.9a5.5 5.5 0 0 1-3.18-.8c-.8-.51-1.1-1.31-1.1-2.22 0-.71.2-1.21.6-1.72.4-.5.99-.81 1.79-1.01-.3-.1-.5-.3-.7-.6a1.67 1.67 0 0 1 0-1.92c.2-.3.46-.48.96-.78a2.78 2.78 0 0 1-1.39-1.21 4.43 4.43 0 0 1-.46-2.05c0-1.21.39-2.12 1.09-2.72A4.42 4.42 0 0 1 33.88 3c.6 0 1.09.1 1.49.2l3.69.11zm-8.57 11.78c0 .6.2 1.01.7 1.31.5.3 1.19.51 2.09.51 1.39 0 2.39-.21 2.99-.61.69-.4.99-1.01.99-1.72 0-.6-.2-1-.49-1.21-.4-.2-1-.3-2-.3h-1.89c-.69 0-1.29.2-1.69.51-.5.4-.7.9-.7 1.51zm.9-9.28c0 .8.2 1.11.6 1.51.4.4.99.6 1.79.6 1.59 0 2.39-.6 2.39-2.11 0-1.62-.8-2.43-2.39-2.43-.8 0-1.39.2-1.79.61-.4.4-.6 1.01-.6 1.82zM45.88 3c.5 0 .89 0 1.29.1l-.3 1.51c-.39-.1-.79-.1-1.19-.1-.9 0-1.59.41-2.19 1.11a4 4 0 0 0-.9 2.63v5.85H41V3.2h1.29l.2 2.02h.1c.4-.71.9-1.31 1.4-1.61A3.72 3.72 0 0 1 45.88 3zM54.37 14l-.3-1.51h-.1c-.5.7-1.1 1.11-1.59 1.41-.5.3-1.2.4-2 .4-1.09 0-1.89-.3-2.48-.81-.6-.5-.9-1.31-.9-2.32 0-2.22 1.69-3.33 5.18-3.43l1.79-.1v-.81c0-.8-.2-1.51-.5-1.91-.3-.41-.89-.61-1.69-.61-.9 0-1.89.3-2.99.81l-.5-1.21c.5-.3 1.1-.51 1.7-.71.59-.2 1.29-.2 1.89-.2 1.29 0 2.19.3 2.79.91.59.5.89 1.41.89 2.72V14zm-3.69-1.11c1 0 1.8-.3 2.39-.81.6-.5.9-1.31.9-2.32V8.65l-1.59.1c-1.3 0-2.19.2-2.79.61-.6.4-.9.91-.9 1.71 0 .61.2 1.01.5 1.31.3.31.8.51 1.49.51zM71.34 13.9V6.83c0-.9-.2-1.51-.5-1.91-.4-.41-.89-.61-1.69-.61-.99 0-1.79.3-2.19.91-.4.61-.7 1.51-.7 2.72V14h-1.59V6.94c0-.91-.2-1.52-.5-1.92-.3-.41-.89-.61-1.69-.61-1 0-1.79.31-2.19.91-.4.61-.7 1.62-.7 3.03V14H58V3.1h1.29l.3 1.51h-.2c.3-.5.7-.9 1.3-1.21.6-.3 1.19-.4 1.89-.4 1.69 0 2.79.61 3.29 1.82h.09c.3-.61.8-1.01 1.4-1.32.6-.3 1.29-.5 2.09-.5 1.19 0 2.09.3 2.69.91.59.6.89 1.61.89 3.03V14h-1.69zM82.37 14l-.3-1.51h-.1c-.5.7-1.1 1.11-1.59 1.41-.5.3-1.2.4-1.99.4-1.1 0-1.9-.3-2.49-.81-.6-.5-.9-1.31-.9-2.32 0-2.22 1.69-3.33 5.18-3.43l1.79-.1v-.81c0-.8-.2-1.51-.5-1.91-.3-.41-.89-.61-1.69-.61-.9 0-1.89.3-2.99.81l-.5-1.21c.5-.3 1.1-.51 1.7-.71.59-.2 1.29-.2 1.89-.2 1.29 0 2.19.3 2.79.91.59.6.89 1.51.89 2.72V14zm-3.69-1.11c1 0 1.8-.3 2.39-.81.6-.5.9-1.31.9-2.32V8.65l-1.59.1c-1.3 0-2.19.2-2.79.61-.6.4-.9.91-.9 1.71 0 .61.2 1.01.5 1.31.4.31.9.51 1.49.51z"/><path fill="#fbb040" d="M103 21.8l7.11 7.03-7.11 6.95 2.83 2.79 9.94-9.74-9.94-9.83zM127 35h-10v3h10zM153 19h-20v19h20zM123.23 12.22h-6.35v-.14l1.87-1.77a25.78 25.78 0 0 0 2.62-2.64c.5-.62.86-1.22 1.09-1.81.24-.59.36-1.22.36-1.89 0-.77-.19-1.46-.57-2.06a3.9 3.9 0 0 0-1.63-1.39c-.7-.33-1.5-.5-2.41-.5-.7 0-1.32.07-1.88.21a6.3 6.3 0 0 0-1.54.58c-.48.25-1.07.68-1.79 1.29l1.68 1.99a8.28 8.28 0 0 1 1.66-1.11 3.7 3.7 0 0 1 1.65-.39c.54 0 .96.15 1.28.43.33.29.49.72.49 1.31a3 3 0 0 1-.22 1.14c-.14.36-.38.76-.72 1.19-.33.43-1.04 1.2-2.12 2.31l-3.66 3.7v2.14h10.19zm9.27-10.31A4.28 4.28 0 0 0 128.69 0c-1.72 0-3 .61-3.84 1.84-.83 1.21-1.24 3.11-1.24 5.68 0 2.47.42 4.33 1.27 5.6a4.31 4.31 0 0 0 3.81 1.89c1.74 0 3.02-.61 3.85-1.84.84-1.22 1.26-3.1 1.26-5.65 0-2.46-.43-4.33-1.3-5.61zm-5.36 1.76c.31-.78.83-1.18 1.55-1.18.72 0 1.23.4 1.55 1.18.33.78.49 2.06.49 3.85 0 1.77-.16 3.05-.48 3.83-.32.78-.84 1.18-1.56 1.18-.73 0-1.25-.39-1.56-1.16a11.4 11.4 0 0 1-.46-3.85c0-1.79.16-3.07.47-3.85zM141.95.23h-2.53l-4.7 3.74 1.49 1.85 1.68-1.34c.2-.16.55-.5 1.06-1.01l-.05 1.52-.03 1.38v8.44h3.08zm4.48 14.58l5.47-11.97h-7.19V.25h10.47v1.93l-5.52 12.63z"/><path fill="#fff" d="M146.61 34h-7.58v-1.59l2.72-2.76c.81-.82 1.33-1.39 1.58-1.71.25-.32.43-.62.54-.89.1-.27.16-.55.16-.85 0-.43-.12-.75-.36-.97a1.4 1.4 0 0 0-.96-.32c-.42 0-.83.1-1.23.29-.39.2-.8.47-1.23.83L139 24.55c.53-.45.98-.78 1.33-.96a5.42 5.42 0 0 1 2.54-.59c.68 0 1.28.12 1.8.37s.92.59 1.21 1.04c.28.44.43.95.43 1.53 0 .5-.09.97-.27 1.41-.17.43-.45.88-.82 1.34-.36.46-1.01 1.11-1.94 1.96l-1.39 1.32v.1h4.72z"/></svg>